<svg xmlns="http://www.w3.org/2000/svg" width="1158" height="1266" fill="none"><g clip-path="url(#a)"><path fill="#C8EFF2" d="M0 0h1158v1266H0z"/><path fill="#F60" d="m572.642-493.526 3.293 3.292c-.838-.001-1.676-.005-2.515-.005-1.358 0-2.717.005-4.074.009l3.296-3.296ZM1575.22 509.054c-406.81-98.602-727.021-418.818-825.624-825.626l825.624 825.626ZM395.421-316.305C302 109.803-33.474 445.277-459.582 538.699l855.003-855.004ZM-553.95 633.066l4.833-4.832c-.005 1.357-.01 2.715-.01 4.073 0 1.867.006 3.733.015 5.597l-4.838-4.838Zm2249.92-.758c0-.838 0-1.675-.01-2.512l3.27 3.27-3.27 3.276c0-1.344.01-2.689.01-4.034ZM-440.105 746.911C-18.043 841.48 314.217 1173.74 408.784 1595.8l-848.889-848.889ZM658.988 1673.31c85.679-450.9 441.052-806.284 891.962-891.961L658.988 1673.31Zm-91.167 81.53c1.865.01 3.732.01 5.599.01h4.035l-4.813 4.81-4.821-4.82Z"/><path fill="#38059F" d="M-85-85h1301v1430H-85z"/><circle cx="565.43" cy="631.843" r="358.415" fill="#F60" transform="rotate(45 565.43 631.843)"/><path fill="#0C607E" d="M.414 630.01c318.995-.567 577.414-259.335 577.416-578.462h.001c.002 319.129 258.425 577.898 577.419 578.463-318.941.567-577.329 259.25-577.413 578.309C577.752 889.26 319.36 630.574.414 630.01Z"/></g><defs><clipPath id="a"><path fill="#fff" d="M0 0h1158v1266H0z"/></clipPath></defs></svg>