<svg xmlns="http://www.w3.org/2000/svg" width="954" height="850" fill="none"><g clip-path="url(#a)"><path fill="#5A1060" d="M0 0h954v850H0z"/><circle cx="68.119" cy="517.193" r="37.425" fill="#EEE" transform="rotate(75.543 68.119 517.193)"/><circle cx="107.567" cy="615.183" r="37.425" fill="#EEE" transform="rotate(60.543 107.567 615.183)"/><circle cx="254.198" cy="764.767" r="37.425" fill="#EEE" transform="rotate(30.543 254.198 764.767)"/><circle cx="351.38" cy="806.162" r="37.425" fill="#EEE" transform="rotate(15.543 351.38 806.162)"/><circle cx="455.967" cy="820.994" r="37.425" fill="#EEE" transform="rotate(.543 455.967 820.994)"/><circle cx="560.834" cy="808.254" r="37.425" fill="#EEE" transform="rotate(-14.457 560.834 808.254)"/><circle cx="658.828" cy="768.807" r="37.425" fill="#EEE" transform="rotate(-29.457 658.828 768.807)"/><circle cx="808.4" cy="622.18" r="37.425" fill="#EEE" transform="rotate(-59.457 808.4 622.18)"/><circle cx="849.804" cy="524.999" r="37.425" fill="#EEE" transform="rotate(-74.457 849.804 524.999)"/><circle cx="864.638" cy="420.407" r="37.425" fill="#EEE" transform="rotate(-89.457 864.638 420.407)"/><circle cx="851.889" cy="315.542" r="37.425" fill="#EEE" transform="rotate(-104.457 851.889 315.542)"/><circle cx="812.44" cy="217.554" r="37.425" fill="#EEE" transform="rotate(-119.457 812.44 217.554)"/><circle cx="665.818" cy="67.968" r="37.425" fill="#EEE" transform="rotate(-149.457 665.818 67.968)"/><circle cx="568.636" cy="26.57" r="37.425" fill="#EEE" transform="rotate(-164.457 568.636 26.57)"/><circle cx="464.048" cy="11.741" r="37.425" fill="#EEE" transform="rotate(-179.457 464.048 11.741)"/><circle cx="359.19" cy="24.481" r="37.425" fill="#EEE" transform="rotate(165.543 359.19 24.48)"/><circle cx="261.196" cy="63.932" r="37.425" fill="#EEE" transform="rotate(150.543 261.196 63.932)"/><circle cx="111.608" cy="210.558" r="37.425" fill="#EEE" transform="rotate(120.543 111.608 210.558)"/><circle cx="70.212" cy="307.743" r="37.425" fill="#EEE" transform="rotate(105.543 70.212 307.743)"/><circle cx="55.386" cy="412.331" r="37.425" fill="#EEE" transform="rotate(90.543 55.386 412.331)"/><path fill="#0C607E" d="m471.609-440.83 865.633 865.633-865.633 865.633-865.633-865.633z"/><path fill="#603" d="M-620.214 375.49 445.277-690 1633.79 498.512 568.298 1564-620.214 375.49Zm1107.146 834.79c17.444 0 34.758-.56 51.923-1.67 44.094-377.493 353.134-674.064 736.215-698.806a803.071 803.071 0 0 0 5.4-93.058c0-20.852-.81-41.517-2.39-61.965C901.412 313.309 604.122 8.206 574.756-371.984a802.296 802.296 0 0 0-87.824-4.806c-37.087 0-73.579 2.545-109.312 7.469C351.768 6.719 63.932 310.725-304.71 361.517a805.46 805.46 0 0 0-1.893 55.229c0 22.929.973 45.632 2.879 68.068 368.846 46.411 658.883 345.991 690.59 719.216 32.775 4.13 66.172 6.25 100.066 6.25Z"/><path fill="red" d="M217 157.001h510v510H217z"/><path fill="#5A1060" d="m472 51.377 360.624 360.624L472 772.626 111.376 412z"/></g><defs><clipPath id="a"><path fill="#fff" d="M0 0h954v850H0z"/></clipPath></defs></svg>