<svg xmlns="http://www.w3.org/2000/svg" width="419" height="212" fill="none"><g clip-path="url(#a)"><path fill="#38059F" d="m209.938 3 209.533 209.533-209.533 209.532L.405 212.533z"/><ellipse cx="138.321" cy="138.516" fill="#5A1060" rx="106.633" ry="106.296"/><ellipse cx="138.321" cy="281.108" fill="#5A1060" rx="106.633" ry="106.296"/><ellipse cx="281.586" cy="138.516" fill="#5A1060" rx="106.633" ry="106.296"/><ellipse cx="281.586" cy="281.108" fill="#5A1060" rx="106.633" ry="106.296"/><circle cx="209.527" cy="212.087" r="151.839" fill="red"/><path fill="#EBF9FA" d="m209.852 61.154 151.15 151.15-151.15 151.151-151.15-151.15z"/><path fill="#F60" d="M208.914 363.957c4.223-81.829 70.35-147.186 152.328-150.349-82.175-3.762-147.962-69.94-151.269-152.105-3.368 82.321-69.366 148.384-151.489 152.024l-.523-.523L209.965 61l152.004 152.004-152.004 152.004-1.051-1.051ZM58.578 213.621c81.074 4.226 145.96 69.216 150.17 150.17l-150.17-150.17Z"/></g><defs><clipPath id="a"><path fill="#fff" d="M0 0h419v212H0z"/></clipPath></defs></svg>